<svg xmlns="http://www.w3.org/2000/svg" data-name="Layer 1" viewBox="0 0 64 80" x="0px" y="0px"><path d="M32,8c-13.234,0-24,10.766-24,24s10.766,24,24,24,24-10.766,24-24-10.766-24-24-24Zm0,11c3.866,0,7,3.134,7,7s-3.134,7-7,7-7-3.134-7-7,3.134-7,7-7Zm13.051,28.055c-3.476,3.076-8.05,4.945-13.051,4.945s-9.575-1.869-13.051-4.945c-.772-.683-1.054-1.786-.673-2.743,2.17-5.451,7.495-9.312,13.725-9.312s11.555,3.862,13.725,9.312c.381,.957,.098,2.06-.673,2.743Z"/><text x="0" y="79" fill="#000000" font-size="5px" font-weight="bold" font-family="'Helvetica Neue', Helvetica, Arial-Unicode, Arial, Sans-serif">Created by Glyphy</text><text x="0" y="84" fill="#000000" font-size="5px" font-weight="bold" font-family="'Helvetica Neue', Helvetica, Arial-Unicode, Arial, Sans-serif">from the Noun Project</text></svg>